<?xml version="1.0" encoding="utf-8"?>
<!-- Generator: Adobe Illustrator 25.2.3, SVG Export Plug-In . SVG Version: 6.00 Build 0)  -->
<svg version="1.1" id="Layer_1" xmlns="http://www.w3.org/2000/svg" xmlns:xlink="http://www.w3.org/1999/xlink" x="0px" y="0px"
	 viewBox="0 0 134 45" style="enable-background:new 0 0 134 45;" xml:space="preserve">
<style type="text/css">
	.st0{fill:#2E353A;}
</style>
<g id="Layer_2_1_">
	<g id="Layer_1-2">
		<path class="st0" d="M18.47,34.33h-8.11V0.99h8.11c4.81,0,7.61,3,7.61,7.96v17.62C26.08,31.58,23.27,34.33,18.47,34.33z
			 M20.77,8.9c0-2.1-0.8-3.15-2.65-3.15h-2.45v23.88h2.45c1.85,0,2.65-1.1,2.65-3.15V8.9z"/>
		<path class="st0" d="M31.13,34.33V0.99h13.32V5.7h-8.01v9.22H42v4.4h-5.56v10.31h8.01v4.71H31.13z"/>
		<path class="st0" d="M56.66,34.93c-4.86,0-8.06-3.4-8.06-7.96V8.35c0.01-4.56,3.2-7.96,8.06-7.96c4.91,0,7.56,3.2,7.56,7.66v4.8
			h-4.71v-4.9c0-1.6-0.9-2.75-2.75-2.75s-2.75,1.15-2.75,2.7v19.52c0,1.55,0.9,2.7,2.75,2.7s2.75-1.15,2.75-2.75v-4.96h4.71v4.85
			C64.22,31.73,61.57,34.93,56.66,34.93z"/>
		<path class="st0" d="M76.74,34.93c-4.81,0-7.96-3.25-7.96-7.91V8.3c0-4.61,3.15-7.91,7.96-7.91c4.81,0,7.96,3.3,7.96,7.91v18.72
			C84.7,31.68,81.55,34.93,76.74,34.93z M79.34,7.9c0-1.6-0.95-2.7-2.6-2.7c-1.65,0-2.6,1.1-2.6,2.7v19.52c0,1.6,0.95,2.7,2.6,2.7
			s2.6-1.1,2.6-2.7V7.9z"/>
		<path class="st0" d="M97.66,34.33h-8.11V0.99h8.11c4.81,0,7.61,3,7.61,7.96v17.62C105.27,31.58,102.47,34.33,97.66,34.33z
			 M99.96,8.9c0-2.1-0.8-3.15-2.65-3.15h-2.45v23.88h2.45c1.85,0,2.65-1.1,2.65-3.15L99.96,8.9z"/>
		<path class="st0" d="M110.33,34.33V0.99h13.31V5.7h-8.01v9.22h5.56v4.4h-5.56v10.31h8.01v4.71H110.33z"/>
		<polygon class="st0" points="128.7,29.62 128.7,39.99 5.3,39.99 5.3,29.62 0,29.62 0,45.29 5.3,45.29 128.7,45.29 134,45.29 
			134,39.99 134,29.62 		"/>
	</g>
</g>
</svg>
